:SAMPLES-PER-SECOND 30
:FULLY-SPECIFIED
:DEGREES
201
root  -8.03085 36.9977 19.0201 -171.752 38.8486 -170.856
RightUpLeg  -22.7147 -31.9541 -3.31127
RightLeg  35.6703 0.733178 0.306145
RightFoot  -5.8521 -0.957359 19.0088
RightToes  -1.74624e-010 0 -3.6325e-017
Spine  20.6564 7.97897 -5.96302
Spine1  13.6188 5.05577 7.64347
HEad  -17.1403 22.438 -3.0724
LeftShoulder1  1.02413 -1.27414 -14.5395
LeftArm  22.4719 7.26598 -64.9441
LeftForeArm  68.2788 -78.0164 -104.553
LeftHand  -1.43378 0.44425 33.0436
RightShoulder  0.909142 0.759846 14.5102
RightArm  -63.9135 -3.50424 51.2797
RightForeArm  -4.48947 54.8022 16.4568
RightHand  -4.94222 8.5899 -39.7341
LeftUpLeg  -26.1719 -14.3795 13.7327
LeftLeg  45.0615 1.12823 1.63031
LeftFoot  -20.6462 -0.503822 -7.69125
LeftToes  -5.82109e-011 1.10366e-010 -8.03124e-011
202
root  -8.22797 37.348 19.4101 -172.684 37.6898 -173.007
RightUpLeg  -22.6393 -28.8414 -5.13911
RightLeg  34.0523 1.46827 0.818873
RightFoot  -3.87157 -1.21907 18.1287
RightToes  -1.74624e-010 0 -3.6325e-017
Spine  22.8228 7.09696 -1.8787
Spine1  13.653 7.80059 -1.51642
HEad  -15.982 19.3485 -1.91453
LeftShoulder1  1.16092 -1.96358 -14.3241
LeftArm  22.7368 4.3686 -61.5431
LeftForeArm  68.5041 -77.9729 -104.996
LeftHand  -1.10596 1.13015 29.8104
RightShoulder  0.636687 0.385977 8.94037
RightArm  -55.3804 10.6917 53.0786
RightForeArm  -1.17101 54.3231 15.8606
RightHand  -4.87373 8.87989 -38.5118
LeftUpLeg  -26.2547 -13.6862 12.2571
LeftLeg  41.7844 0.380373 0.772654
LeftFoot  -17.9504 -0.280346 -6.70244
LeftToes  -5.82109e-011 1.10366e-010 -8.03124e-011
203
root  -8.38068 37.6614 19.8639 -173.45 36.2083 -176.115
RightUpLeg  -23.5477 -25.1843 -7.68702
RightLeg  33.0803 1.99086 1.15284
RightFoot  -2.26872 -1.44225 17.8305
RightToes  -1.74624e-010 0 -3.6325e-017
Spine  24.6942 5.23063 0.322701
Spine1  13.1029 8.89562 -9.90055
HEad  -15.0521 17.6446 -1.92483
LeftShoulder1  1.24893 -2.47716 -13.944
LeftArm  20.2429 2.40625 -56.9845
LeftForeArm  76.8293 -77.5154 -112.138
LeftHand  -0.951786 1.34634 27.094
RightShoulder  0.315683 -0.449137 2.14686
RightArm  -40.8538 23.739 51.3696
RightForeArm  3.68542 57.473 17.6672
RightHand  -4.6232 8.99486 -36.3489
LeftUpLeg  -26.9039 -12.2011 10.1169
LeftLeg  37.898 -1.28537 -0.679276
LeftFoot  -14.9323 -0.0947968 -5.90203
LeftToes  -5.82109e-011 1.10366e-010 -8.03124e-011
204
root  -8.42428 37.8825 20.3019 -173.946 33.7098 -179.48
RightUpLeg  -24.5926 -22.1054 -10.8113
RightLeg  33.2047 2.34836 1.4124
RightFoot  -1.70697 -1.58798 18.5618
RightToes  -1.74624e-010 0 -3.6325e-017
Spine  26.1726 3.00782 2.21657
Spine1  12.7516 9.21074 -17.1837
HEad  -14.3481 15.6626 -2.2868
LeftShoulder1  1.36028 -3.1893 -13.3356
LeftArm  16.8661 -0.209386 -52.5617
LeftForeArm  85.6623 -76.8768 -119.059
LeftHand  -0.845291 1.44615 24.7068
RightShoulder  0.0914238 -1.61243 -4.33282
RightArm  -33.1157 32.4833 43.2302
RightForeArm  16.2505 66.4671 26.0947
RightHand  -3.5803 7.81406 -30.9373
LeftUpLeg  -27.924 -10.4622 7.55777
LeftLeg  34.1826 -3.68454 -2.32257
LeftFoot  -11.9252 0.0438383 -5.44352
LeftToes  -5.82109e-011 1.10366e-010 -8.03124e-011
205
root  -8.30597 37.983 20.6938 -174.245 29.8353 177.931
RightUpLeg  -24.6345 -20.5509 -13.6043
RightLeg  34.487 1.97478 1.20616
RightFoot  -2.54064 -1.5142 19.2791
RightToes  -1.74624e-010 0 -3.6325e-017
Spine  27.506 1.11938 3.71043
Spine1  12.8315 8.98975 -21.6249
HEad  -13.9121 13.3097 -1.90683
LeftShoulder1  1.47721 -3.9984 -12.6373
LeftArm  13.4632 -2.82072 -49.5021
LeftForeArm  92.7216 -76.3346 -123.713
LeftHand  -0.769161 1.5157 22.9415
RightShoulder  0.00490629 -3.38908 -9.67124
RightArm  -38.3836 36.0115 32.3072
RightForeArm  38.3072 75.6619 45.942
RightHand  -2.61769 6.59649 -25.3565
LeftUpLeg  -28.9017 -8.7657 5.07423
LeftLeg  31.6002 -5.8874 -3.54539
LeftFoot  -9.19691 0.14497 -4.84346
LeftToes  -5.82109e-011 1.10366e-010 -8.03124e-011
206
root  -8.03288 37.9786 21.0308 -174.477 24.9245 176.816
RightUpLeg  -23.1581 -20.3212 -15.1128
RightLeg  36.3563 0.462599 0.101637
RightFoot  -4.2088 -1.24636 19.356
RightToes  -1.74624e-010 0 -3.6325e-017
Spine  28.6219 0.0848552 3.57822
Spine1  12.9955 7.83391 -21.4627
HEad  -13.9376 11.6831 -0.394635
LeftShoulder1  1.55219 -4.58364 -12.0862
LeftArm  10.108 -3.04862 -47.847
LeftForeArm  100.069 -75.5095 -128.961
LeftHand  -0.812553 1.26573 22.7429
RightShoulder  0.0536081 -5.47542 -12.7682
RightArm  -46.7432 36.5719 26.227
RightForeArm  59.1296 78.7187 66.852
RightHand  -2.52512 6.94802 -23.7353
LeftUpLeg  -29.5902 -7.74219 3.50133
LeftLeg  30.501 -7.32579 -4.2941
LeftFoot  -7.14077 0.191637 -4.03914
LeftToes  -5.82109e-011 1.10366e-010 -8.03124e-011
207
root  -7.64654 37.9061 21.2816 -174.879 20.1969 177.098
RightUpLeg  -20.6698 -20.2363 -15.1675
RightLeg  38.1742 -1.57183 -1.5934
RightFoot  -5.90385 -0.967322 19.3526
RightToes  -1.74624e-010 0 -3.6325e-017
Spine  29.0706 0.0276195 1.85955
Spine1  13.5163 6.15605 -17.6409
HEad  -14.4907 11.0835 1.70906
LeftShoulder1  1.59926 -4.86008 -12.0091
LeftArm  7.27653 -0.678369 -46.5131
LeftForeArm  106.832 -74.3465 -134.453
LeftHand  -0.98861 0.640567 24.0218
RightShoulder  0.0878052 -6.59565 -12.7973
RightArm  -50.8673 36.1677 25.9615
RightForeArm  61.7669 78.8642 70.051
RightHand  -2.742 7.31805 -24.9883
LeftUpLeg  -29.8957 -8.38318 3.60776
LeftLeg  30.7109 -8.05442 -4.79043
LeftFoot  -6.26996 0.200596 -3.67074
LeftToes  -5.82109e-011 1.10366e-010 -8.03124e-011
208
root  -7.20401 37.8562 21.4196 -175.664 17.0445 177.977
RightUpLeg  -18.0506 -19.5599 -14.4274
RightLeg  39.3904 -3.14377 -3.03544
RightFoot  -7.03169 -0.787508 19.4632
RightToes  -1.74624e-010 0 -3.6325e-017
Spine  28.3713 0.663499 -0.101174
Spine1  15.1247 5.11307 -13.3336
HEad  -15.4585 10.723 3.35619
LeftShoulder1  1.6472 -4.96079 -12.3858
LeftArm  5.63452 2.17247 -44.8012
LeftForeArm  110.028 -73.8586 -136.495
LeftHand  -1.18052 0.00992276 25.3335
RightShoulder  0.0186709 -6.03933 -10.206
RightArm  -50.5885 34.9392 28.4488
RightForeArm  62.8155 78.9326 71.362
RightHand  -2.60927 6.5384 -25.2933
LeftUpLeg  -29.4699 -10.3385 4.95557
LeftLeg  31.2626 -8.30478 -5.05742
LeftFoot  -6.33912 0.206334 -3.85656
LeftToes  -5.82109e-011 1.10366e-010 -8.03124e-011
209
root  -6.7644 37.9463 21.4845 -176.635 15.909 178.55
RightUpLeg  -15.9634 -18.6991 -13.7338
RightLeg  39.5736 -3.95492 -3.77131
RightFoot  -7.10139 -0.762595 19.1383
RightToes  -1.74624e-010 0 -3.6325e-017
Spine  26.6833 1.56312 -1.48486
Spine1  17.4161 5.08292 -10.6928
HEad  -16.727 10.1163 3.82469
LeftShoulder1  1.65737 -4.94097 -12.5688
LeftArm  5.11022 4.76133 -43.4051
LeftForeArm  109.603 -74.4533 -134.584
LeftHand  -1.27824 -0.309447 25.8731
RightShoulder  -0.0317731 -4.68555 -6.33352
RightArm  -47.1741 33.507 32.4948
RightForeArm  69.7913 79.2793 79.0768
RightHand  -2.41842 5.92778 -24.737
LeftUpLeg  -28.0021 -11.662 6.0544
LeftLeg  30.6669 -8.09112 -4.80591
LeftFoot  -6.16328 0.225969 -4.1826
LeftToes  -5.82109e-011 1.10366e-010 -8.03124e-011
210
root  -6.3681 38.2167 21.577 -177.281 16.0212 178.572
RightUpLeg  -14.7309 -18.1714 -13.3079
RightLeg  38.6322 -4.27441 -3.9263
RightFoot  -5.85355 -0.93783 18.5837
RightToes  -1.74624e-010 0 -3.6325e-017
Spine  24.8789 2.29592 -2.42382
Spine1  18.9838 5.39048 -9.48989
HEad  -18.1068 9.51317 3.30187
LeftShoulder1  1.5905 -4.69154 -12.3247
LeftArm  5.019 8.24668 -43.247
LeftForeArm  108.425 -75.1092 -132.168
LeftHand  -1.33313 -0.45072 26.3109
RightShoulder  0.00751611 -3.39506 -2.28984
RightArm  -40.7299 31.9235 38.3667
RightForeArm  75.4837 79.3426 87.5658
RightHand  -2.37529 5.7806 -24.619
LeftUpLeg  -26.0102 -11.277 6.25287
LeftLeg  28.335 -7.24397 -3.87978
LeftFoot  -4.70514 0.307803 -4.80278
LeftToes  -5.82109e-011 1.10366e-010 -8.03124e-011
211
root  -6.03096 38.5951 21.76 -177.371 16.3791 178.476
RightUpLeg  -14.1188 -17.6047 -12.79
RightLeg  36.7374 -4.36501 -3.75189
RightFoot  -3.72188 -1.29735 18.8992
RightToes  -1.74624e-010 0 -3.6325e-017
Spine  23.576 2.57218 -2.87808
Spine1  19.1536 5.42039 -8.93318
HEad  -19.3514 9.05956 2.50935
LeftShoulder1  1.47126 -4.10755 -12.2428
LeftArm  4.95993 12.6463 -44.3311
LeftForeArm  109.298 -75.207 -131.983
LeftHand  -1.43917 -0.710169 27.1632
RightShoulder  0.134823 -2.12288 1.49214
RightArm  -32.3105 29.252 44.7714
RightForeArm  76.454 79.1201 93.3934
RightHand  -2.20378 5.2344 -24.0203
LeftUpLeg  -24.4315 -10.223 6.30812
LeftLeg  25.182 -5.98962 -2.72827
LeftFoot  -1.97207 0.49829 -5.92238
LeftToes  -5.82109e-011 1.10366e-010 -8.03124e-011
212
root  -5.73301 38.9524 22.0092 -177.148 16.6286 178.579
RightUpLeg  -13.5218 -16.5801 -12.0392
RightLeg  34.2214 -4.35548 -3.43144
RightFoot  -1.96002 -1.68485 20.1872
RightToes  -1.74624e-010 0 -3.6325e-017
Spine  22.6463 2.50362 -2.48898
Spine1  18.6474 5.31325 -8.67727
HEad  -20.2828 8.51058 1.83867
LeftShoulder1  1.34408 -3.32979 -12.6128
LeftArm  5.02627 16.3088 -46.3475
LeftForeArm  111.826 -75.2928 -132.18
LeftHand  -1.58972 -1.21763 27.6983
RightShoulder  0.334421 -0.895714 5.0356
RightArm  -23.9359 25.3784 49.8781
RightForeArm  76.3714 78.7246 99.5116
RightHand  -1.87658 4.24042 -22.615
LeftUpLeg  -23.5903 -9.64485 6.93812
LeftLeg  22.4518 -5.41663 -2.11659
LeftFoot  1.30526 0.801677 -7.29243
LeftToes  -5.82109e-011 1.10366e-010 -8.03124e-011
213
root  -5.43357 39.1694 22.2696 -176.962 16.9005 178.635
RightUpLeg  -12.6456 -15.7878 -11.3704
RightLeg  31.614 -4.14524 -2.99185
RightFoot  -1.94615 -1.75463 20.9831
RightToes  -1.74624e-010 0 -3.6325e-017
Spine  21.62 2.46667 -1.60865
Spine1  18.2591 5.2999 -8.29814
HEad  -20.8121 7.90096 1.12143
LeftShoulder1  1.23449 -2.66875 -12.9691
LeftArm  5.21682 18.4536 -49.2052
LeftForeArm  114.221 -75.8021 -130.8
LeftHand  -1.687 -1.76284 27.1764
RightShoulder  0.53845 -0.0940061 8.41205
RightArm  -16.3773 20.9743 53.4929
RightForeArm  77.4192 78.0833 107.283
RightHand  -1.58532 3.29771 -21.2213
LeftUpLeg  -23.0624 -8.72434 7.81802
LeftLeg  20.3058 -6.91734 -2.48873
LeftFoot  3.97079 1.22901 -9.28942
LeftToes  -5.82109e-011 1.10366e-010 -8.03124e-011
214
root  -5.12258 39.182 22.5323 -176.966 17.3314 178.291
RightUpLeg  -11.8821 -16.0057 -11.0429
RightLeg  29.6981 -3.56129 -2.43266
RightFoot  -4.04604 -1.32782 20.1328
RightToes  -1.74624e-010 0 -3.6325e-017
Spine  20.3831 2.58711 -1.17007
Spine1  17.9192 5.18796 -7.44451
HEad  -20.9543 7.73803 0.0914546
LeftShoulder1  1.15845 -2.24954 -13.1179
LeftArm  5.31103 19.8056 -52.3979
LeftForeArm  115.629 -76.237 -129.414
LeftHand  -1.63252 -1.858 25.9908
RightShoulder  0.696484 0.230782 11.597
RightArm  -9.26088 16.3596 56.011
RightForeArm  81.0975 77.2017 115.65
RightHand  -1.29323 2.42037 -19.26
LeftUpLeg  -22.4076 -6.61366 8.30846
LeftLeg  18.3948 -9.81672 -3.30457
LeftFoot  4.36384 1.72084 -12.6944
LeftToes  -5.82109e-011 1.10366e-010 -8.03124e-011
